
<svg width="20px" height="18px" viewBox="0 0 20 18" version="1.1" xmlns="http://www.w3.org/2000/svg" xmlns:xlink="http://www.w3.org/1999/xlink">
    <desc>Created with Sketch.</desc>
    <defs></defs>
    <g id="Layer_1-2" stroke="none" stroke-width="1" fill="none" fill-rule="evenodd">
        <path d="M16.16,10.88 C16.749365,9.63145589 17.0305687,8.25973051 16.98,6.88 L16.98,6.37 L16.47,6.37 C15.0902695,6.31943131 13.7185441,6.60063501 12.47,7.19 C11.9980674,5.92873467 11.237843,4.79524686 10.25,3.88 L9.88,3.5 L9.48,3.88 C8.4847933,4.81666048 7.72425006,5.97460469 7.26,7.26 C6.01145589,6.67063501 4.63973051,6.38943131 3.26,6.44 L2.75,6.44 L2.75,7 C2.69943131,8.37973051 2.98063501,9.75145589 3.57,11 C2.32061117,11.4475547 1.20088247,12.1963303 0.31,13.18 L0,13.55 L0.31,13.92 C1.55316002,15.3817627 3.32708362,16.2885147 5.24,16.44 C6.20838073,16.4166797 7.15618487,16.1556901 8,15.68 C8.41025712,16.3262639 8.89712087,16.9205734 9.45,17.45 L9.84,17.79 L10.22,17.45 C10.7811629,16.9256206 11.2719252,16.3306554 11.68,15.68 C12.5297532,16.1588583 13.4848159,16.4199546 14.46,16.44 C17.25,16.44 19.32,14.03 19.46,13.92 L19.77,13.55 L19.46,13.18 C18.5663328,12.1531167 17.432721,11.3630236 16.16,10.88 L16.16,10.88 Z M15.82,7.53 C15.7854782,8.60899569 15.5050158,9.66586033 15,10.62 L14.5,10.62 C13.7344435,10.6312287 12.979156,10.7979362 12.28,11.11 C12.5966777,10.4088449 12.7635676,9.64932563 12.77,8.88 C12.780001,8.71348336 12.780001,8.54651664 12.77,8.38 C13.7180073,7.88821768 14.7628386,7.61164468 15.83,7.57 L15.82,7.53 Z M9.88,5.1 C10.8721998,6.12387129 11.479863,7.45931707 11.6,8.88 C11.4889073,10.3147528 10.8806009,11.6657587 9.88,12.7 C8.86780126,11.6716104 8.25152807,10.3186428 8.14,8.88 C8.26802127,7.45738751 8.88254148,6.12239534 9.88,5.1 L9.88,5.1 Z M3.88,7.57 C4.96926698,7.60795874 6.03585617,7.89169881 7,8.4 C6.989999,8.56651664 6.989999,8.73348336 7,8.9 C7.01122865,9.66555654 7.17793625,10.420844 7.49,11.12 C6.790844,10.8079362 6.03555654,10.6412287 5.27,10.63 C5.10348336,10.619999 4.93651664,10.619999 4.77,10.63 C4.23758924,9.69385822 3.93272096,8.6456594 3.88,7.57 L3.88,7.57 Z M1.52,13.52 C2.4980777,12.5129271 3.81027589,11.8977231 5.21,11.79 C6.63634659,11.90734 7.97689697,12.5192535 9,13.52 C7.97933551,14.5242954 6.63743029,15.1368273 5.21,15.25 C3.82439555,15.1328207 2.52795647,14.5183441 1.56,13.52 L1.52,13.52 Z M9.88,16.16 C9.55091389,15.801806 9.25628061,15.4134258 9,15 C9.35,14.74 9.64,14.49 9.86,14.29 C10.1329858,14.5427664 10.4201153,14.7798153 10.72,15 C10.4764048,15.4117653 10.1952044,15.8000897 9.88,16.16 L9.88,16.16 Z M14.5,15.25 C13.0712035,15.1308234 11.7280854,14.5193512 10.7,13.52 C11.7280854,12.5206488 13.0712035,11.9091766 14.5,11.79 C15.9013621,11.9025154 17.2151033,12.5167782 18.2,13.52 C17.2179764,14.5330249 15.8972548,15.148887 14.49,15.25 L14.5,15.25 Z" id="Shape" fill="#ffffff"></path>
        <polygon id="Shape" fill="#ffffff" points="10.69 0.81 9.87 1.63 9.05 0.81 9.87 0"></polygon>
        <polygon id="Shape" fill="#ffffff" points="14.15 3.12 13.33 3.94 12.52 3.12 13.33 2.31"></polygon>
        <polygon id="Shape" fill="#ffffff" points="7.22 3.12 6.4 3.94 5.59 3.12 6.4 2.31"></polygon>
    </g>
</svg>