
<svg width="22px" height="19px" viewBox="0 0 22 19" version="1.1" xmlns="http://www.w3.org/2000/svg" xmlns:xlink="http://www.w3.org/1999/xlink">
    <!-- Generator: Sketch 39.1 (31720) - http://www.bohemiancoding.com/sketch -->
    <desc>Created with Sketch.</desc>
    <defs></defs>
    <path d="M22,13.4 C21.999662,12.5810939 21.4825707,11.8515543 20.71,11.58 L20.71,5 L22,4.4 L11,0 L0,4.4 L5.2,6.48 L5.2,9.54 C5.30807197,10.6283571 6.03151747,11.5579457 7.06,11.93 C8.29074644,12.4991924 9.63420088,12.7829245 10.99,12.76 C12.3424354,12.7814157 13.6823048,12.4977189 14.91,11.93 C15.9384825,11.5579457 16.661928,10.6283571 16.77,9.54 L16.77,6.54 L19.39,5.54 L19.39,11.68 C18.6546042,11.940243 18.1481815,12.6175977 18.1066069,13.3965745 C18.0650323,14.1755514 18.4964816,14.902961 19.2,15.24 L18.13,18.4 L19.35,18.8 L20.03,16.8 L20.71,18.8 L21.93,18.4 L20.86,15.2 C21.5545676,14.8691946 21.9978222,14.1693189 22,13.4 L22,13.4 Z M15.53,9.54 C15.53,10.45 13.6,11.47 11.03,11.47 C8.46,11.47 6.53,10.47 6.53,9.54 L6.53,7 L11,8.83 L15.53,7 L15.53,9.54 L15.53,9.54 Z M11,7.45 L3.47,4.45 L11,1.4 L18.55,4.4 L11,7.45 Z M20,14.07 C19.6465378,14.07 19.36,13.7834622 19.36,13.43 L19.36,13.43 C19.36,13.0765378 19.6465378,12.79 20,12.79 C20.3534622,12.79 20.64,13.0765378 20.64,13.43 C20.64,13.7834622 20.3534622,14.07 20,14.07 L20,14.07 Z" id="Shape" stroke="none" fill="#FFFFFF" fill-rule="evenodd"></path>
</svg>