
<svg width="19px" height="20px" viewBox="0 0 19 20" version="1.1" xmlns="http://www.w3.org/2000/svg" xmlns:xlink="http://www.w3.org/1999/xlink">
    <!-- Generator: Sketch 39.1 (31720) - http://www.bohemiancoding.com/sketch -->
    <desc>Created with Sketch.</desc>
    <defs></defs>
    <path d="M16,16.85 C16.1657351,16.9145196 16.3531903,16.8404094 16.43,16.68 C18.43,12 16.43,9.62 16.37,9.52 C16.3097118,9.45767572 16.226712,9.42248595 16.14,9.42248595 C16.053288,9.42248595 15.9702882,9.45767572 15.91,9.52 C15.7867216,9.64467073 15.7867216,9.84532927 15.91,9.97 C15.98,10.06 17.69,12.17 15.91,16.46 C15.8408136,16.5945448 15.8788522,16.7593785 16,16.85 L16,16.85 Z" id="Shape" stroke="none" fill="#000000" fill-rule="evenodd"></path>
    <path d="M15.54,17.86 C15.6266087,17.8571941 15.7088778,17.8214249 15.77,17.76 C15.8295697,17.6984661 15.8619872,17.6156213 15.86,17.53 L15.86,17.41 C15.8426835,17.3698342 15.8190515,17.3326981 15.79,17.3 C15.6720442,17.2208611 15.5179558,17.2208611 15.4,17.3 C15.2594667,17.3501337 15.1799102,17.4987224 15.2160984,17.6434754 C15.2522867,17.7882283 15.3924077,17.8818977 15.54,17.86 L15.54,17.86 Z" id="Shape" stroke="none" fill="#000000" fill-rule="evenodd"></path>
    <path d="M6.73,19.48 C8.63217297,19.4739681 10.4451286,18.6726417 11.73,17.27 C11.9376635,17.9901853 12.2332209,18.6820583 12.61,19.33 C12.671547,19.4245857 12.7771588,19.4811634 12.89,19.48 L16.79,19.48 C16.8992886,19.477804 17.0003981,19.421632 17.06,19.33 C18.2586944,17.0776622 18.8449105,14.5500361 18.76,12 C18.5882028,10.5903008 18.0731458,9.24428519 17.26,8.08 C17.1,7.81 16.95,7.55 16.81,7.29 L16.81,7.29 L16.6,6.89 C16.5852391,6.85249662 16.5685502,6.815781 16.55,6.78 C16.5471988,6.71774307 16.5181248,6.65959514 16.47,6.62 L16.39,6.44 L16.33,6.27 L16.27,6.1 L16.27,6 C16.260095,5.94376617 16.260095,5.88623383 16.27,5.83 C16.2600943,5.80081769 16.2600943,5.76918231 16.27,5.74 C16.2600519,5.66365604 16.2600519,5.58634396 16.27,5.51 C16.3249106,5.11201031 16.5032845,4.74127223 16.78,4.45 L16.78,4.45 C17.2223538,3.94170657 17.485815,3.30237401 17.53,2.63 C17.53,1.19405965 16.3659403,0.03 14.93,0.03 C13.4940597,0.03 12.33,1.19405965 12.33,2.63 C12.3653915,3.30252971 12.6260426,3.94359049 13.07,4.45 L13.07,4.45 C13.3282295,4.76057409 13.4914161,5.13902827 13.54,5.54 C13.5499481,5.61634396 13.5499481,5.69365604 13.54,5.77 L13.54,6.14 L13.48,6.31 L13.41,6.47 C13.3980514,6.53857016 13.3706979,6.60353478 13.33,6.66 L13.25,6.82 C13.2352391,6.85750338 13.2185502,6.894219 13.2,6.93 L13,7.3 L13,7.3 C12.86,7.56 12.71,7.82 12.55,8.09 L12.29,8.57 C10.3738759,6.01397653 6.94030228,5.13046092 4.02843375,6.44416155 C1.11656522,7.75786217 -0.493270981,10.9167314 0.154985844,14.0447581 C0.803242669,17.1727847 3.5358716,19.4317151 6.73,19.48 L6.73,19.48 Z M16,7.13 L13.72,7.13 L13.79,7 L13.85,6.87 L14,6.58 C13.9905542,6.55762264 13.9905542,6.53237736 14,6.51 C14.0231814,6.40236578 14.0601532,6.29817231 14.11,6.2 L14.11,6.2 C14.1236786,6.08489141 14.1470959,5.9711504 14.18,5.86 L15.57,5.86 C15.5812507,5.97641605 15.6081602,6.0907814 15.65,6.2 L15.65,6.2 C15.6727008,6.30646613 15.7062077,6.41033759 15.75,6.51 L15.75,6.58 C15.7691381,6.67618375 15.8064739,6.76782615 15.86,6.85 C15.862576,6.90226604 15.8762094,6.9533912 15.9,7 L16,7.13 Z M13.89,4.53 L15.84,4.53 L15.84,4.59 L15.78,4.69 L15.78,5 C15.7699593,5.02572153 15.7699593,5.05427847 15.78,5.08 L14.18,5.08 L14.18,4.86 L14.13,4.76 L14.13,4.69 L14.07,4.59 L14.07,4.53 L13.89,4.53 Z M14.89,0.63 C15.9945695,0.63 16.89,1.5254305 16.89,2.63 C16.8607274,3.10792196 16.6784039,3.56373057 16.37,3.93 L13.43,3.93 C13.1158009,3.56723326 12.9326605,3.1093822 12.91,2.63 C12.9096608,1.54466571 13.7750049,0.657133305 14.86,0.63 L14.89,0.63 Z M13,8.42 L13.36,7.78 L16.36,7.78 L16.73,8.42 C17.4707633,9.48522582 17.9441072,10.7131761 18.11,12 C18.1607821,14.3592854 17.6500811,16.6968562 16.62,18.82 L13.1,18.82 C12.738997,18.1283832 12.4507849,17.4011503 12.24,16.65 C13.8601574,14.4536834 13.9982812,11.4978324 12.59,9.16 C12.73,8.94 12.87,8.69 13.02,8.44 L13,8.42 Z M6.73,6.48 C10.1418126,6.48552074 12.9036754,9.25484084 12.8999964,12.6666559 C12.8963174,16.0784709 10.1284886,18.8418283 6.71667206,18.839991 C3.30485553,18.8381537 0.540004467,16.071817 0.54,12.66 C0.545516545,9.24526329 3.31525884,6.47999554 6.73,6.48 L6.73,6.48 Z" id="Shape" stroke="none" fill="#000000" fill-rule="evenodd"></path>
    <path d="M7,17.85 L7.06,17.85 C7.14766487,17.8423956 7.2286621,17.8000944 7.28499453,17.7324954 C7.34132696,17.6648965 7.36832866,17.577599 7.36,17.49 C7.3500694,17.3486423 7.24835172,17.2306498 7.11,17.2 C5.06553428,16.9811539 3.36347962,15.5330188 2.82,13.55 C2.80321436,13.468858 2.75464314,13.397813 2.68512676,13.3527213 C2.61561037,13.3076295 2.53093537,13.2922446 2.45,13.31 L2.45,13.31 C2.28016492,13.3452006 2.16928974,13.5092958 2.2,13.68 C2.79921788,15.9192238 4.69900132,17.5696606 7,17.85 L7,17.85 Z" id="Shape" stroke="none" fill="#000000" fill-rule="evenodd"></path>
    <path d="M2.54,12 L2.54,11.35 C2.54552134,11.2590678 2.51320667,11.1698983 2.45071116,11.1036152 C2.38821564,11.0373321 2.30109947,10.9998325 2.21,11 L2.21,11 C2.03326888,11 1.89,11.1432689 1.89,11.32 L1.89,11.32 L1.89,12 C1.89,12.1767311 2.03326888,12.32 2.21,12.32 C2.38841909,12.3200819 2.53459338,12.1783372 2.54,12 L2.54,12 Z" id="Shape" stroke="none" fill="#000000" fill-rule="evenodd"></path>
    <path d="M7.38,9.41 C7.91033674,9.51237623 8.42613037,9.17511592 8.54501644,8.64823448 C8.66390251,8.12135304 8.34291231,7.59527997 7.82,7.46 C7.67485826,7.43008977 7.52514174,7.43008977 7.38,7.46 C7.11948138,7.51728089 6.89264457,7.67627016 6.74992395,7.9016185 C6.60720334,8.12696685 6.56042877,8.39999554 6.62,8.66 C6.70749605,9.03564646 7.00322765,9.32748685 7.38,9.41 L7.38,9.41 Z M7.38,8.11 C7.46488068,8.10730599 7.54735117,8.13846258 7.60924744,8.19660756 C7.67114371,8.25475255 7.70738888,8.33511673 7.71,8.42 L7.71,8.42 C7.71,8.60225397 7.56225397,8.75 7.38,8.75 L7.38,8.75 C7.20326888,8.75 7.06,8.60673112 7.06,8.43 L7.06,8.43 C7.06,8.25326888 7.20326888,8.11 7.38,8.11 L7.38,8.11 Z" id="Shape" stroke="none" fill="#000000" fill-rule="evenodd"></path>
    <path d="M4.78,10.71 C5.13726559,10.7885984 5.50932437,10.6706275 5.7560254,10.4005256 C6.00272644,10.1304237 6.08658996,9.74922588 5.9760254,9.40052559 C5.86546085,9.0518253 5.57726559,8.78859843 5.22,8.71 C5.07485826,8.68008977 4.92514174,8.68008977 4.78,8.71 C4.49534499,8.75980949 4.24615495,8.9303247 4.09663109,9.17761415 C3.94710724,9.4249036 3.91187077,9.72478609 4,10 C4.10390408,10.3656914 4.40617801,10.6408382 4.78,10.71 L4.78,10.71 Z M4.78,9.41 C4.86488068,9.40730599 4.94735117,9.43846258 5.00924744,9.49660756 C5.07114371,9.55475255 5.10738888,9.63511673 5.11,9.72 L5.11,9.72 C5.11,9.90225397 4.96225397,10.05 4.78,10.05 L4.78,10.05 C4.60326888,10.05 4.46,9.90673112 4.46,9.73 L4.46,9.73 C4.46,9.55326888 4.60326888,9.41 4.78,9.41 L4.78,9.41 Z" id="Shape" stroke="none" fill="#000000" fill-rule="evenodd"></path>
    <path d="M8,10.71 C8,11.2622847 8.44771525,11.71 9,11.71 C9.55228475,11.71 10,11.2622847 10,10.71 C10,10.1577153 9.55228475,9.71 9,9.71 C8.44771525,9.71 8,10.1577153 8,10.71 L8,10.71 Z M9,10.38 C9.17937232,10.4105671 9.30015528,10.580558 9.27,10.76 C9.23345877,10.88515 9.12857101,10.9783835 9,11 C8.82055798,11.0301553 8.65056715,10.9093723 8.62,10.73 C8.6025022,10.6449609 8.6203092,10.5564621 8.66933538,10.4848084 C8.71836157,10.4131548 8.79439836,10.3644973 8.88,10.35 C8.92193413,10.3493434 8.96330828,10.3596869 9,10.38 L9,10.38 Z" id="Shape" stroke="none" fill="#000000" fill-rule="evenodd"></path>
</svg>