<svg width="16px" height="16px" viewBox="0 0 16 16" version="1.1" xmlns="http://www.w3.org/2000/svg" xmlns:xlink="http://www.w3.org/1999/xlink">
    <!-- Generator: Sketch 39.1 (31720) - http://www.bohemiancoding.com/sketch -->
    <desc>Created with Sketch.</desc>
    <defs></defs>
    <path d="M13.94,1.24 C12.2792134,-0.407333388 9.60078659,-0.407333388 7.94,1.24 L1.53,7.65 C-0.275971132,9.16049879 -0.515498791,11.8490289 0.995,13.655 C2.50549879,15.4609711 5.19402887,15.7004988 7,14.19 C7.19468752,14.0253125 7.37531252,13.8446875 7.54,13.65 L13.95,7.24 C15.5574461,5.56142509 15.5530324,2.91320744 13.94,1.24 L13.94,1.24 Z M6.94,13.06 C5.56,14.32 3.07,14.58 1.8,13.2 C0.53,11.82 1,9.56 2.15,8.27 L5.05,5.37 L9.84,10.16 L6.94,13.06 Z M13.35,6.65 L10.45,9.55 L5.63,4.76 L8.53,1.86 C9.8674812,0.629860283 11.9370352,0.673101092 13.2219671,1.95803293 C14.5068989,3.24296478 14.5501397,5.3125188 13.32,6.65 L13.35,6.65 Z" id="Shape" stroke="none" fill="#000000" fill-rule="evenodd"></path>
</svg>