
<svg width="15px" height="20px" viewBox="0 0 15 20" version="1.1" xmlns="http://www.w3.org/2000/svg" xmlns:xlink="http://www.w3.org/1999/xlink">
    <desc>Created with Sketch.</desc>
    <defs></defs>
    <path d="M12.34,11.92 L13.66,11.92 L11.28,7.8 L11.94,7.8 L7.44,0 L2.94,7.8 L3.6,7.8 L1.22,11.92 L2.54,11.92 L0,16.32 L5.58,16.32 L5.58,19.32 L9.3,19.32 L9.3,16.32 L14.88,16.32 L12.34,11.92 Z M7.44,2.27 L10,6.67 L4.9,6.67 L7.44,2.27 Z M4.91,7.8 L10,7.8 L11.73,10.8 L3.18,10.8 L4.91,7.8 Z M8.17,18.21 L6.71,18.21 L6.71,16.32 L8.17,16.32 L8.17,18.21 Z M1.97,15.21 L3.85,11.94 L11,11.94 L12.88,15.21 L1.97,15.21 Z" id="Shape" stroke="none" fill="#FFFFFF" fill-rule="evenodd"></path>
</svg>