
<svg width="18px" height="18px" viewBox="208 152 18 18" version="1.1" xmlns="http://www.w3.org/2000/svg" xmlns:xlink="http://www.w3.org/1999/xlink">
    <!-- Generator: Sketch 39.1 (31720) - http://www.bohemiancoding.com/sketch -->
    <desc>Created with Sketch.</desc>
    <defs></defs>
    <g id="religion" stroke="none" stroke-width="1" fill="none" fill-rule="evenodd" transform="translate(208.000000, 152.000000)">
        <g id="Layer_2" fill="#FFFFFF">
            <g>
                <g id="Layer_1-2">
                    <path d="M17.72,12.08 L15.8,11.13 C15.3002581,10.8768595 14.9894243,10.3600984 15,9.8 L15,7.25 C14.9985791,6.71162623 14.8719057,6.18096772 14.63,5.7 L12.28,1 C11.9970613,0.397698528 11.3953802,0.00951712834 10.73,0 C10.2630004,0.00232271829 9.81777896,0.197785778 9.5,0.54 C9.1794735,0.201670798 8.73599918,0.00697475542 8.27,0 C7.6053363,0.0118789969 7.00479522,0.399324854 6.72,1 L4.39,5.71 C4.14103476,6.19281479 4.00753174,6.72682684 4,7.27 L4,9.82 C4.0068444,10.3845981 3.68751909,10.9025282 3.18,11.15 L1.28,12.1 C1.16048173,12.1581648 1.0690423,12.2615253 1.02588509,12.3872441 C0.98272789,12.512963 0.991405276,12.6506919 1.05,12.77 L1.05,12.77 L3.05,16.77 C3.17478782,17.0151565 3.47417322,17.1134622 3.72,16.99 L8,14.79 C8.61732276,14.504612 9.1384407,14.0460282 9.5,13.47 C9.842296,14.0363373 10.3381322,14.4940322 10.93,14.79 L15.25,17 C15.4958268,17.1234622 15.7952122,17.0251565 15.92,16.78 L17.92,12.78 C17.9883515,12.6664446 18.0077864,12.5300434 17.9738704,12.4019166 C17.9399545,12.2737898 17.8555811,12.1648674 17.74,12.1 L17.72,12.08 Z M9,11.67 C9.00278113,12.6156427 8.46753834,13.480564 7.62,13.9 L3.74,15.9 L2.17,12.78 L3.64,12.06 L3.64,12.06 C4.47811604,11.633178 5.00421496,10.7705306 5,9.83 L5,7.25 C5.00038001,6.86495522 5.08934114,6.48515965 5.26,6.14 L7.59,1.44 C7.73832716,1.12320635 8.08821725,0.953543483 8.42881215,1.03325718 C8.76940705,1.11297088 9.00766417,1.42028523 9,1.77 C9.03330359,2.03929608 9.00597007,2.31263128 8.92,2.57 C8.37276541,3.6607425 7.89839334,4.78654101 7.5,5.94 L7.1,7.05 C7.04150483,7.20717266 7.00776962,7.37247519 7,7.54 L7,10.54 C7,10.8161424 7.22385763,11.04 7.5,11.04 L7.5,11.04 C7.77614237,11.04 8,10.8161424 8,10.54 L8,10.54 L8,7.54 C7.99978084,7.27700238 8.20722145,7.06073451 8.47,7.05 L8.47,7.05 C8.60073254,7.04454803 8.72802469,7.09270209 8.82241546,7.18331723 C8.91680623,7.27393237 8.97011363,7.39915387 8.97,7.53 L9,7.53 L9,11.67 Z M8.5,6.05 C8.81,5.2 9.15,4.4 9.5,3.66 C9.85,4.41 10.18,5.21 10.5,6.05 C10.1311202,6.04851343 9.77480232,6.18391421 9.5,6.43 C9.2262224,6.1822355 8.86922854,6.04657784 8.5,6.05 L8.5,6.05 Z M15.26,15.87 L11.37,13.87 C10.5296388,13.4441753 10.0000169,12.58209 10,11.64 L10,7.54 C10,7.26938047 10.2193805,7.05 10.49,7.05 L10.49,7.05 C10.6180796,7.04454481 10.7428296,7.09164365 10.835346,7.18038393 C10.9278625,7.2691242 10.9801161,7.39180437 10.98,7.52 L10.98,10.52 C10.98,10.7961424 11.2038576,11.02 11.48,11.02 L11.48,11.02 C11.7561424,11.02 11.98,10.7961424 11.98,10.52 L11.98,10.52 L11.98,7.52 C11.9303946,7.06138014 11.8018327,6.61479686 11.6,6.2 C11.1736128,4.94818751 10.665864,3.72558169 10.08,2.54 C10,2.35 10,2.24 10,1.74 C9.99732393,1.54466516 10.0730514,1.35640742 10.2102441,1.21733539 C10.3474368,1.07826336 10.5346468,0.99998167 10.73,1 L10.73,1 C11.0076145,0.998975698 11.2624484,1.15342048 11.39,1.4 L13.72,6.1 C13.8990887,6.4465063 13.9949577,6.82998209 14,7.22 L14,9.77 C14.0003943,10.709241 14.5251406,11.5696705 15.36,12 L15.36,12 L16.83,12.72 L15.26,15.87 Z" id="Shape"></path>
                </g>
            </g>
        </g>
    </g>
</svg>