
<svg width="16px" height="17px" viewBox="0 -1 16 17" version="1.1" xmlns="http://www.w3.org/2000/svg" xmlns:xlink="http://www.w3.org/1999/xlink">
    <!-- Generator: Sketch 39.1 (31720) - http://www.bohemiancoding.com/sketch -->
    <desc>Created with Sketch.</desc>
    <defs></defs>
    <path d="M12.72,5.63 L11.72,5.63 L11.72,4.69 L0,4.69 L0,11.06 C0.00170163671,13.0049613 0.963457014,14.8236894 2.57,15.92 L2.69,16 L9.07,16 L9.19,15.92 C10.4688583,15.0487952 11.3527467,13.7085904 11.65,12.19 L12.72,12.19 C14.531494,12.19 16,10.721494 16,8.91 C16,7.09850604 14.531494,5.63000003 12.72,5.63 L12.72,5.63 Z M11.72,8.44 L12.72,8.44 C12.9795738,8.44 13.19,8.65042617 13.19,8.91 C13.19,9.16957383 12.9795738,9.38 12.72,9.38 L11.72,9.38 L11.72,8.44 Z M10.79,11.06 C10.79,12.6337865 10.0490292,14.1157281 8.79,15.06 L3,15.06 C1.73214316,14.1231221 0.988788215,12.6364122 1,11.06 L1,5.63 L10.89,5.63 L10.79,11.06 Z M12.68,11.26 L11.68,11.26 L11.68,10.32 L12.68,10.32 C13.4587215,10.32 14.09,9.6887215 14.09,8.91 C14.09,8.1312785 13.4587215,7.5 12.68,7.5 L11.68,7.5 L11.68,6.57 L12.68,6.57 C13.915754,6.6507406 14.8767845,7.67661111 14.8767845,8.915 C14.8767845,10.1533889 13.915754,11.1792594 12.68,11.26 L12.68,11.26 Z" id="Shape" stroke="none" fill="#000000" fill-rule="evenodd"></path>
    <path d="M2.68,3.75 L3.61,3.75 C3.6012583,3.60502314 3.63986339,3.46113146 3.72,3.34 C3.86307692,3.08350764 3.93554205,2.7936471 3.93,2.5 C3.9366956,2.20939389 3.86409633,1.92245394 3.72,1.67 C3.56994845,1.4101031 3.56994845,1.0898969 3.72,0.83 C3.86409633,0.577546063 3.9366956,0.290606111 3.93,-7.77156117e-17 L3,-7.77156117e-17 C3.00382109,0.147589033 2.96567656,0.293231779 2.89,0.42 C2.75953256,0.677289184 2.69104224,0.96152402 2.69,1.25 C2.690955,1.54168169 2.75940799,1.82918426 2.89,2.09 C2.97013661,2.21113146 3.0087417,2.35502314 3,2.5 C3.00382109,2.64758903 2.96567656,2.79323178 2.89,2.92 C2.75075193,3.17438356 2.67848698,3.46000219 2.68,3.75 L2.68,3.75 Z" id="Shape" stroke="none" fill="#000000" fill-rule="evenodd"></path>
    <path d="M5.26,3.75 L6.19,3.75 C6.1812583,3.60502314 6.21986339,3.46113146 6.3,3.34 C6.44307692,3.08350764 6.51554205,2.7936471 6.51,2.5 C6.5166956,2.20939389 6.44409633,1.92245394 6.3,1.67 C6.14994845,1.4101031 6.14994845,1.0898969 6.3,0.83 C6.44409633,0.577546063 6.5166956,0.290606111 6.51,5.55111512e-17 L5.57,5.55111512e-17 C5.57382109,0.147589033 5.53567656,0.293231779 5.46,0.42 C5.32953256,0.677289184 5.26104224,0.96152402 5.26,1.25 C5.260955,1.54168169 5.32940799,1.82918426 5.46,2.09 C5.54013661,2.21113146 5.5787417,2.35502314 5.57,2.5 C5.57382109,2.64758903 5.53567656,2.79323178 5.46,2.92 C5.32953256,3.17728918 5.26104224,3.46152402 5.26,3.75 L5.26,3.75 Z" id="Shape" stroke="none" fill="#000000" fill-rule="evenodd"></path>
    <path d="M7.84,3.75 L8.78,3.75 C8.77876298,3.60714896 8.81313106,3.46623983 8.88,3.34 C9.02307692,3.08350764 9.09554205,2.7936471 9.09,2.5 C9.0966956,2.20939389 9.02409633,1.92245394 8.88,1.67 C8.75669881,1.40357427 8.75669881,1.09642573 8.88,0.83 C9.02409633,0.577546063 9.0966956,0.290606111 9.09,5.55111512e-17 L8.15,5.55111512e-17 C8.14194271,0.151615139 8.08981141,0.297582761 8,0.42 C7.86953256,0.677289184 7.80104224,0.96152402 7.8,1.25 C7.800955,1.54168169 7.86940799,1.82918426 8,2.09 C8.08013661,2.21113146 8.1187417,2.35502314 8.11,2.5 C8.11382109,2.64758903 8.07567656,2.79323178 8,2.92 C7.88332868,3.18061187 7.82856603,3.46469313 7.84,3.75 L7.84,3.75 Z" id="Shape" stroke="none" fill="#000000" fill-rule="evenodd"></path>
</svg>