
<svg width="18px" height="16px" viewBox="0 0 18 16" version="1.1" xmlns="http://www.w3.org/2000/svg" xmlns:xlink="http://www.w3.org/1999/xlink">
    <!-- Generator: Sketch 39.1 (31720) - http://www.bohemiancoding.com/sketch -->
    <desc>Created with Sketch.</desc>
    <defs></defs>
    <path d="M5.85,12.07 L5.85,10.83 L15.24,10.83 L17.07,3.68 L14.07,3.68 L14.07,0.32 L10.37,0.32 L10.37,1.22 L6.1,1.22 L6.1,3.68 L4.1,3.68 L3.1,0 L0,0 L0,1 L2.33,1 L4.82,10.42 L4.82,13.08 L5.75,13.08 C5.53642305,13.6365509 5.63965435,14.2650282 6.02003997,14.7240171 C6.40042559,15.1830059 6.99880996,15.4011267 7.58533755,15.2945933 C8.17186513,15.1880599 8.65532224,14.7734399 8.85,14.21 C8.91289846,14.0402133 8.94670608,13.8610329 8.95,13.68 C8.94984269,13.4471724 8.90573721,13.2164668 8.82,13 L11.55,13 C11.2796902,13.5382314 11.322123,14.1806526 11.6608775,14.6786545 C11.999632,15.1766563 12.5815565,15.4521005 13.1814531,15.3983936 C13.7813497,15.3446866 14.3050928,14.9702553 14.55,14.42 C14.7598714,13.9699304 14.7598714,13.4500696 14.55,13 L15.3,13 L15.3,12 L5.85,12.07 Z M13.09,13.07 C13.4545079,13.07 13.75,13.3654921 13.75,13.73 C13.75,14.0945079 13.4545079,14.39 13.09,14.39 C12.7254921,14.39 12.43,14.0945079 12.43,13.73 C12.4353677,13.3677387 12.7277387,13.0753677 13.09,13.07 L13.09,13.07 Z M7.3,13.07 C7.66450793,13.07 7.96,13.3654921 7.96,13.73 C7.96,14.0945079 7.66450793,14.39 7.3,14.39 C6.93549207,14.39 6.64,14.0945079 6.64,13.73 C6.64536771,13.3677387 6.93773874,13.0753677 7.3,13.07 L7.3,13.07 L7.3,13.07 Z M11.3,1.33 L13,1.33 L13,3.68 L11.3,3.68 L11.3,1.33 Z M7.07,2.22 L10.3,2.22 L10.3,3.68 L7.1,3.68 L7.07,2.22 Z M5.71,9.85 L4.37,4.68 L15.78,4.68 L14.46,9.86 L5.71,9.85 Z" id="Shape" stroke="none" fill="#000000" fill-rule="evenodd"></path>
    <rect id="Rectangle-path" stroke="none" fill="#000000" fill-rule="evenodd" x="6.49" y="5.75" width="1" height="3.17"></rect>
    <rect id="Rectangle-path" stroke="none" fill="#000000" fill-rule="evenodd" x="8.55" y="5.75" width="1" height="3.17"></rect>
    <rect id="Rectangle-path" stroke="none" fill="#000000" fill-rule="evenodd" x="10.62" y="5.75" width="1" height="3.17"></rect>
    <rect id="Rectangle-path" stroke="none" fill="#000000" fill-rule="evenodd" x="12.69" y="5.75" width="1" height="3.17"></rect>
</svg>