<svg width="18px" height="10px" viewBox="0 0 18 10" version="1.1" xmlns="http://www.w3.org/2000/svg" xmlns:xlink="http://www.w3.org/1999/xlink">
    <!-- Generator: Sketch 39.1 (31720) - http://www.bohemiancoding.com/sketch -->
    <desc>Created with Sketch.</desc>
    <defs></defs>
    <path d="M17.6,1.74 L15.35,1.74 L15.35,0 L11.49,0 L11.49,3.12 L6.11,3.12 L6.11,0 L2.25,0 L2.25,1.74 L0,1.74 L0,8.26 L2.25,8.26 L2.25,10 L6.11,10 L6.11,6.88 L11.49,6.88 L11.49,10 L15.35,10 L15.35,8.26 L17.6,8.26 L17.6,1.74 Z M1,7.23 L1,2.77 L2.25,2.77 L2.25,7.23 L1,7.23 Z M5.08,9 L3.28,9 L3.28,1 L5.08,1 L5.08,9 Z M6.08,5.88 L6.08,4.18 L11.46,4.18 L11.46,5.88 L6.08,5.88 Z M14.32,9 L12.52,9 L12.52,1 L14.32,1 L14.32,9 Z M16.57,7.26 L15.35,7.26 L15.35,2.77 L16.57,2.77 L16.57,7.26 Z" id="Shape" stroke="none" fill="#FFFFFF" fill-rule="evenodd"></path>
</svg>